<?xml version="1.0" encoding="utf-8"?>
<!-- Generator: Adobe Illustrator 25.2.0, SVG Export Plug-In . SVG Version: 6.00 Build 0)  -->
<svg version="1.1" id="Capa_1" xmlns="http://www.w3.org/2000/svg" xmlns:xlink="http://www.w3.org/1999/xlink" x="0px" y="0px"
	 viewBox="0 0 512 512" style="enable-background:new 0 0 512 512;" xml:space="preserve">
<style type="text/css">
	.st0{fill:#020334;}
</style>
<g transform="translate(0 -1)">
	<g>
		<g>
			<path class="st0" d="M503.5,495.9H500L344.6,210.3c-0.2-0.3-0.5-0.6-0.7-0.8c-0.3-0.5-0.7-1-1.2-1.4c-0.4-0.3-0.8-0.6-1.3-0.9
				l0,0v-9.8c0-4.7-3.8-8.5-8.5-8.5s-8.5,3.8-8.5,8.5v8.5H179.2v-8.5c0-4.7-3.8-8.5-8.5-8.5s-8.5,3.8-8.5,8.5v14.9L11.9,495.9H8.5
				c-4.7,0-8.5,3.8-8.5,8.5s3.8,8.5,8.5,8.5h494.9c4.7,0,8.5-3.8,8.5-8.5S508.2,495.9,503.5,495.9z M162.1,495.9h-42.7l15.4-20.5
				c2.8-3.8,2.1-9.1-1.7-11.9s-9.1-2.1-11.9,1.7L111,478.9v-25.6c0-4.7-3.8-8.5-8.5-8.5s-8.5,3.8-8.5,8.5v25.6l-10.2-13.7
				c-2.8-3.8-8.2-4.5-11.9-1.7c-3.8,2.8-4.5,8.2-1.7,11.9l15.4,20.5H31.2l130.9-247.2L162.1,495.9L162.1,495.9z M256,495.9
				l15.4-20.5c2.8-3.8,2.1-9.1-1.7-11.9s-9.1-2.1-11.9,1.7l-10.2,13.7v-25.6c0-4.7-3.8-8.5-8.5-8.5s-8.5,3.8-8.5,8.5v25.6
				l-10.2-13.7c-2.8-3.8-8.2-4.5-11.9-1.7s-4.5,8.2-1.7,11.9l15.4,20.5h-42.7V248.7l130.9,247.2H256z M409.6,495.9l15.4-20.5
				c2.8-3.8,2.1-9.1-1.7-11.9s-9.1-2.1-11.9,1.7l-10.2,13.7v-25.6c0-4.7-3.8-8.5-8.5-8.5s-8.5,3.8-8.5,8.5v25.6L374,465.2
				c-2.8-3.8-8.2-4.5-11.9-1.7c-3.8,2.8-4.5,8.2-1.7,11.9l15.4,20.5h-46.1l-144.9-273H332L480.6,496L409.6,495.9L409.6,495.9z"/>
			<path class="st0" d="M324.3,274.1H256c-3,0-5.8,1.6-7.3,4.2s-1.6,5.8-0.2,8.4l51.2,93.9c1.5,2.7,4.4,4.4,7.5,4.4h68.3
				c3,0,5.8-1.6,7.3-4.2s1.6-5.8,0.2-8.4l-51.2-93.9C330.3,275.8,327.4,274.1,324.3,274.1z M312.3,367.9l-41.9-76.8h48.8l41.9,76.8
				L312.3,367.9L312.3,367.9z"/>
			<path class="st0" d="M393.5,183.4c-0.3,0.2-0.6,0.4-0.9,0.6c-1.4,0.6-2.5,1.7-3.1,3.1c-0.2,0.3-0.4,0.5-0.6,0.8v0.1
				c-0.4,0.9-0.6,1.9-0.6,2.9c0,0.1-0.1,0.2-0.1,0.3s0,0.2,0,0.3c0,1,0.2,2,0.6,3v0.1c0.4,0.9,0.9,1.7,1.6,2.4
				c0.2,0.2,0.4,0.3,0.6,0.5c0.6,0.5,1.3,1,2,1.4c0.1,0.1,0.2,0.2,0.4,0.3c10.5,4.5,21.8,6.8,33.2,6.7c47.1,0,85.3-38.2,85.3-85.3
				s-38.2-85.3-85.3-85.3c-11.4,0-22.7,2.3-33.2,6.7c-0.4,0.2-0.7,0.5-1.1,0.7c-0.6,0.3-1.1,0.7-1.6,1.1c-0.5,0.5-0.9,1.2-1.2,1.8
				c-0.2,0.3-0.4,0.6-0.6,0.9v0.1c-0.4,1-0.6,2-0.6,3c0,0.1,0,0.2,0,0.3s0.1,0.2,0.1,0.3c0,1,0.2,2,0.6,2.9v0.1
				c0.2,0.3,0.4,0.6,0.6,0.8c0.3,0.7,0.8,1.3,1.3,1.9c0.5,0.5,1.2,0.9,1.8,1.2c0.3,0.2,0.6,0.4,0.9,0.6
				c25.3,10.7,41.7,35.4,41.7,62.9C435.2,147.9,418.8,172.7,393.5,183.4z M452.3,120.5c0-26.6-12.5-51.7-33.7-67.7
				c25.2-3,50,8.2,64.3,29c14.4,20.9,16,48,4.2,70.5s-35.1,36.5-60.4,36.5c-2.7,0-5.4-0.2-8.1-0.5
				C439.8,172.2,452.3,147.1,452.3,120.5z"/>
			<path class="st0" d="M34.1,146.1h179.2c17.8,0,32.6-13.6,34-31.3s-10.9-33.6-28.5-36.5c6.8-32.3-12.1-64.6-43.7-74.4
				S109.7,10,97,40.5C83.8,27,63.6,22.9,46,30.2S17,54.6,17.1,73.5c0,2.8,0.3,5.7,0.8,8.4C4.2,89.4-2.8,105.2,1.1,120.4
				S18.5,146.1,34.1,146.1z M30.2,95.4c2.4-0.6,4.4-2.1,5.6-4.3s1.3-4.7,0.4-7c-3.9-10.3-1.9-21.9,5.3-30.2S59.9,42,70.6,44.4
				S89.8,55,92.7,65.6c1.1,4.1,5.1,6.7,9.2,6.2c4.2-0.5,7.4-4,7.5-8.2c0.5-18.8,12.3-35.5,29.8-42.3c17.5-6.9,37.5-2.6,50.6,10.9
				s17,33.5,9.8,50.8c-1.1,2.6-0.8,5.6,0.8,8s4.2,3.8,7.1,3.8h5.9c9.4,0,17.1,7.6,17.1,17.1s-7.6,17.1-17.1,17.1H34.1
				c-8.6,0-15.9-6.4-17-15C16.2,105.4,21.8,97.4,30.2,95.4z"/>
		</g>
	</g>
</g>
</svg>
