<?xml version="1.0" encoding="utf-8"?>
<!-- Generator: Adobe Illustrator 25.2.0, SVG Export Plug-In . SVG Version: 6.00 Build 0)  -->
<svg version="1.1" id="Capa_1" xmlns="http://www.w3.org/2000/svg" xmlns:xlink="http://www.w3.org/1999/xlink" x="0px" y="0px"
	 viewBox="0 0 512 512" style="enable-background:new 0 0 512 512;" xml:space="preserve">
<style type="text/css">
	.st0{fill:#020334;stroke:#FFFFFF;stroke-width:6;stroke-miterlimit:10;}
</style>
<g>
	<g>
		<path class="st0" d="M252,9c-31.7,0-57.5,25.8-57.5,57.5S220.3,124,252,124s57.5-25.8,57.5-57.5S283.7,9,252,9z M252,95.3
			c-15.9,0-28.8-12.9-28.8-28.8s12.9-28.8,28.8-28.8s28.8,12.9,28.8,28.8S267.9,95.3,252,95.3z"/>
	</g>
</g>
<g>
	<g>
		<path class="st0" d="M395.8,124.1H252H108.2c-23.8,0-43.2,19.4-43.2,43.2s19.4,43.2,43.2,43.2h100.7v30.7L82.3,336
			c-19.1,14.3-22.9,41.3-8.6,60.4c14,18.7,41,23.2,60.4,8.6l74.8-56.1v107.9c0,23.8,19.4,43.2,43.2,43.2s43.2-19.4,43.2-43.2V210.4
			H396c23.8,0,43.2-19.4,43.2-43.2S419.6,124.1,395.8,124.1z M395.8,181.6h-115c-7.9,0-14.4,6.4-14.4,14.4v260.8
			c0,7.9-6.5,14.4-14.4,14.4s-14.4-6.5-14.4-14.4V320.2c0-11.9-13.6-18.6-23-11.5L116.8,382c-6.3,4.7-15.3,3.6-20.1-2.9
			c-4.8-6.4-3.5-15.4,2.9-20.1l132.3-99.3c3.6-2.7,5.8-7,5.8-11.5V196c0-7.9-6.4-14.4-14.4-14.4H108.2c-7.9,0-14.4-6.5-14.4-14.4
			s6.5-14.4,14.4-14.4h287.7c7.9,0,14.4,6.5,14.4,14.4S403.8,181.6,395.8,181.6z"/>
	</g>
</g>
</svg>
