<?xml version="1.0" encoding="utf-8"?>
<!-- Generator: Adobe Illustrator 25.2.0, SVG Export Plug-In . SVG Version: 6.00 Build 0)  -->
<svg version="1.1" id="Capa_1" xmlns="http://www.w3.org/2000/svg" xmlns:xlink="http://www.w3.org/1999/xlink" x="0px" y="0px"
	 viewBox="0 0 512 512" style="enable-background:new 0 0 512 512;" xml:space="preserve">
<style type="text/css">
	.st0{fill:#020334;}
</style>
<g>
	<g>
		<path class="st0" d="M110.8,250.7l-3.1-8.1c-1.5-3.9-5.8-5.8-9.7-4.3s-5.8,5.8-4.3,9.7l3.1,8.1c1.1,3,4,4.8,7,4.8
			c0.9,0,1.8-0.2,2.7-0.5C110.3,258.9,112.3,254.6,110.8,250.7z"/>
	</g>
</g>
<g>
	<g>
		<path class="st0" d="M200,216.8l-3.1-8.1c-1.5-3.9-5.8-5.8-9.7-4.3s-5.8,5.8-4.3,9.7l3.1,8.1c1.1,3,4,4.8,7,4.8
			c0.9,0,1.8-0.2,2.7-0.5C199.5,225,201.5,220.6,200,216.8z"/>
	</g>
</g>
<g>
	<g>
		<path class="st0" d="M161.8,224.6c-3.9-1.4-8.2,0.5-9.6,4.4c-0.8,2.1-2.5,3.8-4.8,4.7s-4.7,0.8-6.7-0.3c-3.7-1.9-8.2-0.6-10.1,3.1
			c-1.9,3.7-0.6,8.2,3.1,10.1c3.3,1.7,6.9,2.6,10.6,2.6c2.8,0,5.7-0.5,8.4-1.6c6.3-2.4,11.2-7.3,13.5-13.5
			C167.7,230.4,165.7,226.1,161.8,224.6z"/>
	</g>
</g>
<g>
	<g>
		<path class="st0" d="M298.3,262.6c-3.9-1.5-8.2,0.4-9.7,4.3l-3.1,8.1c-1.5,3.9,0.4,8.2,4.3,9.7c3.8,1.5,8.2-0.5,9.7-4.3l3.1-8.1
			C304.1,268.4,302.1,264,298.3,262.6z"/>
	</g>
</g>
<g>
	<g>
		<path class="st0" d="M387.4,296.8c-3.9-1.5-8.2,0.4-9.7,4.3l-3.1,8.1c-1.5,3.9,0.4,8.2,4.3,9.7c3.8,1.5,8.2-0.5,9.7-4.3l3.1-8.1
			C393.2,302.6,391.3,298.3,387.4,296.8z"/>
	</g>
</g>
<g>
	<g>
		<path class="st0" d="M353.4,300.7c-2.3-6.2-7.2-11.1-13.5-13.5s-13.3-2.1-19.1,1c-3.7,1.9-5.1,6.5-3.1,10.1
			c1.9,3.7,6.5,5.1,10.1,3.1c2-1,4.4-1.1,6.7-0.3c2.3,0.9,4,2.6,4.8,4.7c1.4,3.8,5.8,5.9,9.6,4.5
			C352.9,308.9,354.9,304.6,353.4,300.7z"/>
	</g>
</g>
<g>
	<g>
		<path class="st0" d="M508,108.9l-30.3-15.3c0,0,12-26.5,12-26.6c2.5-5.5-2.6-11.7-8.5-10.4c-25.7,5.7-47.7,13.6-67.1,24.1
			c-8.4,4.6-1.4,17.8,7.1,13.2c14.4-7.8,30.3-14.1,48.4-19l-8.6,19c-1.6,3.7-0.1,8,3.5,9.8l18.8,9.5c-26.8,7.7-49.4,18.5-69,32.6
			c-18.9,13.7-32.6,28.7-45.6,44.3c-1.3-0.5-2.6-1.1-3.9-1.7c-9.8-4.2-19.3-9-28.5-14.2c5.6-6.2,11-12.7,16.6-19.4
			c12.5-15.1,25.4-30.8,43.6-45c7.6-5.9-1.5-17.8-9.2-11.9c-19.6,15.2-33,31.5-46,47.3c-6.1,7.5-12,14.6-18.2,21.1
			c-11.7-7.3-20.8-14.1-26.9-18.9c-10.1-8-25.4-4.9-31.6,6.4c-2.9,5.2-6.6,12.2-10.6,20.5c-9.4-33-23.8-62.1-32.8-78.6
			c-6.2-11.3-21.5-14.4-31.6-6.5c-13.6,10.7-42,30.8-80,45.3S37.1,153,19.8,154C7,154.8-2.4,167.4,0.5,179.9
			c5.1,22.1,17,64.8,39,101.7c14.4,24.1,30.9,42.1,49.1,53.7c-28.8,14.3-53.9,35.6-78.1,66.1c-3.8,4.8-0.4,12,5.7,12.2l29.1,0.8
			l0.5,33.9c0.1,6.9,9.1,10,13.4,4.5c48.7-61.4,93.4-72.2,132.8-81.7c16.4-4,32.1-7.7,47.1-14.7c12.4,19.3,31.6,34,57.4,44
			c15.8,6.1,31.2,9.2,45.9,9.2c40.9,0,75.8-23.4,103.5-69.5c22.1-36.8,34.1-79.3,39.3-101.4c2.9-12.5-6.4-25.1-19.2-25.9
			c-16.1-1-47.3-4.6-82.3-16.9c22.7-26.9,53.3-57.6,122.6-73C513,121.4,514.1,112,508,108.9z M188.5,356.5
			c-38.2,9.2-81.1,19.6-127.9,71.5l-0.3-21.1c-0.1-4-3.3-7.3-7.3-7.4l-20.9-0.6c22.6-25.8,46.3-43.5,73.5-54.9
			c8.9,3.6,18.1,5.8,27.7,6.8c22.5,2.2,45.2-3.3,65.5-12.8c0.1,0,0.2-0.1,0.3-0.2c9.8-4.6,18.4-9.9,26-16.1
			c1.6,7.6,3.9,14.8,6.9,21.5C218.4,349.3,203.8,352.8,188.5,356.5z M236.8,284.7c-7.7,14.2-19.7,25.6-33.4,33.9
			c-24.4,14.6-54.7,22.3-82.7,14.7c-0.1,0-0.2-0.1-0.3-0.1c-25.9-7.2-48.7-27.1-68-59.3c-21-35.1-32.4-76.1-37.3-97.3
			c-0.4-1.8,0-3.7,1.1-5c1-1.4,2.6-2.3,4.5-2.4c18.1-1.1,54.4-5.2,94.3-20.3c39.8-15.2,69.7-36.3,83.9-47.5c2.9-2.3,7.4-1.4,9.1,1.9
			c9.7,17.7,23,45.2,31.7,76c1.9,6.8,3.5,13.3,4.8,19.7c0,0,0,0,0,0.1c5.9,28.2,6.4,59.8-7.7,85.7
			C236.8,284.6,236.8,284.6,236.8,284.7z M464.9,227.7c3.7,0.2,6.4,3.9,5.5,7.5c-5,21.2-16.4,62.1-37.5,97.1
			c-24.8,41.3-55.3,62.2-90.6,62.2c-12.8,0-26.4-2.8-40.5-8.2c-30.5-11.7-50.4-31-59.3-57.5c-1.8-5.3-3.1-10.7-4-16.2
			c-0.2-1.2-0.4-2.4-0.5-3.7c0,0,0-0.1,0.1-0.1c3.4-3.9,6.4-8,9.1-12.4c15.8-25.5,20-58.5,12.5-98.4c6.6-15.6,13.4-28.6,18-37
			c1.8-3.3,6.2-4.2,9.2-1.9c16.4,13,34.1,24.2,52.7,33.8C378.4,213.1,421.4,225,464.9,227.7z"/>
	</g>
</g>
</svg>
