<?xml version="1.0" encoding="utf-8"?>
<!-- Generator: Adobe Illustrator 25.2.0, SVG Export Plug-In . SVG Version: 6.00 Build 0)  -->
<svg version="1.1" id="Layer_1" xmlns="http://www.w3.org/2000/svg" xmlns:xlink="http://www.w3.org/1999/xlink" x="0px" y="0px"
	 viewBox="0 0 512 512" style="enable-background:new 0 0 512 512;" xml:space="preserve">
<style type="text/css">
	.st0{fill:#020334;stroke:#020334;stroke-miterlimit:10;}
</style>
<g>
	<path class="st0" d="M487.2,197.2c-10.9-16.8-35.5-16.3-45.5,0.7c-47,79.3-173.8,53.9-221.7,123.9c-19.6,28.6-21.7,68.8-6.5,122.8
		c-10.1,14.1-18.8,29.9-26.1,47.3c-2.4,5.6,1.8,11.9,7.9,11.9c3.3,0,6.5-2,7.9-5.2c13.7-32.5,32.5-58.8,55.8-78.1
		c15.3-12.7,30.9-21.2,47.1-28.7l43.4,15.4c4.4,1.6,9.3-0.8,10.9-5.2c1.6-4.4-0.8-9.3-5.2-10.9l-26.4-9.4
		c29.7-12.9,60.3-26.9,92.5-59.3c3.3-3.3,3.3-8.7,0-12.1c-3.3-3.3-8.7-3.3-12.1,0c-19.6,19.7-38.8,32.2-57.6,41.9
		c2.5-9,4-18.3,4.6-27.7c0.3-4.7-3.3-8.8-8-9c-4.7-0.3-8.8,3.3-9,8c-0.8,13.5-3.9,26.6-9.1,39c-35.9,16-70.5,28.5-103.1,65.5
		c-44.4-186,161.6-106.7,229.6-221.3c3.7-6.3,12.7-6,16.5-0.1c24.1,37.1,28.6,82.8,12.7,128.6c-18.7,54.1-63.9,100.4-115.1,117.9
		c-31.6,10.8-65.4,11.5-100.6,2c-4.6-1.2-9.2,1.5-10.5,6c-1.2,4.6,1.5,9.2,6,10.5c71.6,19.2,137.8-1,187.5-52.2
		C510.6,359.8,533.7,268.8,487.2,197.2L487.2,197.2z"/>
	<path class="st0" d="M184.5,30c-6.5-14.1-23.7-19.7-37.3-12.2C34.1,80.6-32.9,201.6,16.5,319.6c1.8,4.3,6.8,6.4,11.2,4.6
		c4.3-1.8,6.4-6.8,4.6-11.2C-14.1,202.5,51,90.7,155.5,32.8c4.9-2.7,11.1-0.7,13.5,4.4c58.5,127.3,32.8,280.2-108.5,312.3
		c6-23,12.8-45.9,20.4-68.5c17.8-12.8,37.2-22.6,57.7-29.2c4.5-1.5,6.9-6.3,5.5-10.8c-1.5-4.5-6.3-6.9-10.8-5.5
		c-15,4.9-29.5,11.3-43.3,19.3c15.2-41.7,33.1-82.3,53.5-121.4c2.2-4.2,0.5-9.3-3.6-11.5c-4.2-2.2-9.3-0.5-11.5,3.6
		c-10.3,19.8-20,40.1-29.1,60.6c-3.1-10.3-7.5-19.9-13.3-28.9c-2.5-4-7.8-5.1-11.8-2.6s-5.1,7.8-2.6,11.8
		c9.1,14.1,14.6,30.5,15.4,48.7C64.5,270.6,46,330,32.8,392.4c-1,4.6,2,9.1,6.6,10.1s9.1-2,10.1-6.6c2-9.4,4.1-18.8,6.4-28.1
		C213.2,337.7,250.3,173,184.5,30L184.5,30z"/>
	<path class="st0" d="M255.3,72.2c50-17.6,119.4,26.5,139.6-21.9c9.5-22.7-17-56.6-46-35.3c-3.8,2.8-4.6,8.1-1.8,11.9
		c2.8,3.8,8.1,4.6,11.9,1.8c5.6-4.1,10.3-4.5,14.5-1.2c5.3,4.2,7.4,12.1,5.7,16.2c-13.3,31.6-76.7-6.2-129.6,12.4
		c-4.4,1.6-6.8,6.4-5.2,10.9C246,71.5,250.9,73.8,255.3,72.2z"/>
	<path class="st0" d="M410.8,119.3c7.7,1,16.3,2.1,24.8,2.1c16.3,0,32-4.1,39.3-21.2c5.2-12.1,1.2-27.1-9.4-35.7
		c-10.4-8.4-24.4-8.3-36.5,0.3c-3.8,2.7-4.8,8.1-2,11.9c2.7,3.8,8.1,4.8,11.9,2c5.9-4.2,11.4-4.5,15.9-0.9
		c4.7,3.8,6.6,10.5,4.4,15.7c-5.1,12-18.9,12.4-46.2,8.9c-4.7-0.6-9,2.7-9.6,7.4C402.8,114.4,406.1,118.7,410.8,119.3z"/>
	<path class="st0" d="M325,200.4c-4.4,1.6-6.8,6.4-5.2,10.9c1.6,4.4,6.4,6.8,10.9,5.2c26.1-9.2,44.4-31.8,48-59.1
		c1.8-13.6-6.9-26.5-20.1-30.1c-42.3-11.4-85.2,17.3-90.8,60.6c-0.6,4.8,0.1,9.7,1.9,14.1c-2.8,2.8-5.6,5.6-8.3,8.5
		c-3.2,3.5-3,8.9,0.5,12.1c3.5,3.2,8.9,3,12.1-0.5c14.1-15.3,30.4-28.4,48.4-38.8c4.1-2.3,5.5-7.6,3.1-11.7
		c-2.3-4.1-7.6-5.5-11.7-3.1c-10.1,5.8-19.9,12.5-28.9,19.9c5.3-32.4,37.6-53.1,69.1-44.6c5,1.4,8.3,6.3,7.6,11.4
		C359,176.1,345,193.4,325,200.4L325,200.4z"/>
</g>
</svg>
