<?xml version="1.0" encoding="utf-8"?>
<!-- Generator: Adobe Illustrator 25.2.0, SVG Export Plug-In . SVG Version: 6.00 Build 0)  -->
<svg version="1.1" id="Capa_1" xmlns="http://www.w3.org/2000/svg" xmlns:xlink="http://www.w3.org/1999/xlink" x="0px" y="0px"
	 viewBox="0 0 397.6 397.6" style="enable-background:new 0 0 397.6 397.6;" xml:space="preserve">
<style type="text/css">
	.st0{fill:#020334;}
</style>
<g>
	<g>
		<path class="st0" d="M289.6,232.8c45.6,0,82.4-36.8,82.4-82.4S335.2,68,289.6,68l0,0c-2.4,0-4.4,0-6.8,0.4
			c-7.6-44.8-50-74.8-94.8-67.2c-34.4,5.6-61.6,32.8-67.6,67.2c-2.4,0-4.4-0.4-6.8-0.4c-45.2,0-88,31.2-88,82.4
			c0,51.6,42.8,82.4,88.4,82.4h59.2v150.4h-96c-4-0.4-7.6,2.8-7.6,6.8s2.8,7.6,6.8,7.6h1.2h248.8c4,0.4,7.6-2.8,7.6-6.8
			c0.4-4-2.8-7.6-6.8-7.6c-0.4,0-0.8,0-1.2,0h-89.6V232.8L289.6,232.8L289.6,232.8z M221.6,192v191.2h-34v-176c0-1.6-0.8-3.2-2-4.4
			L119.2,122c-0.8-1.2-1.2-2.4-1.2-4c0.8-3.6,3.6-6,7.2-6c1.6,0,3.2,0.8,4,2l45.2,54.8c2.4,3.2,6.8,4,10,1.6c2-1.2,2.8-3.6,2.8-5.6
			v-34.4c0-4,1.6-8,4.4-10.8l0.4-0.4c2.8-2.8,7.2-4.8,11.2-4.8h2.4c8.8,0,16,7.2,16,16v18.8c0,4,3.2,7.2,7.2,7.2
			c2,0,4.4-0.8,5.6-2.8l33.6-40.8c0.8-1.2,2.4-2,4-2c3.6,0,6.8,2.4,7.2,6c0,1.6-0.4,2.8-1.2,4l-54.4,66.4
			C222.4,188.4,221.6,190.4,221.6,192z M236.4,218.4v-24l53.2-64c3.6-4,4.8-9.6,4.4-14.8c-1.6-11.6-11.6-20-23.2-19.2
			c-5.2,0.4-10,2.8-13.2,6.8l-0.4,0.8l-20.4,24.8c-0.4-7.6-3.6-14.8-8.8-20.4c-6.4-5.6-14.4-8.8-22.4-8.8h-2.4c-8,0-16,3.2-21.6,8.8
			l-0.4,0.4c-5.6,5.6-8.4,13.2-8.4,21.2v14L140,104.4c-3.6-4-8.4-6.8-13.6-7.2c-11.6-0.8-21.6,7.6-23.2,19.2
			c-0.4,5.2,1.2,10.8,4.4,14.8l65.2,78.4v8.4h-59.2c-38,0-70.4-24-74-61.2s24-70.4,61.2-74c4.4-0.4,8.4-0.4,12.8,0c2,0,4,0,6,0.4
			c2,0,4,0.4,6,0.8c4,0.8,7.6-2,8.4-6c0-0.4,0-0.4,0-0.8c4-37.2,37.6-64.4,74.8-60.4c32,3.2,57.2,28.4,60.4,60.4
			c0.4,4,3.6,6.8,7.6,6.8h0.8c2-0.4,4-0.8,6-0.8h6c37.6,0.4,67.6,31.2,67.2,68.4c0,17.2-6.8,34.4-19.2,46.8c-12.8,12.8-30,20-48,20
			L236.4,218.4L236.4,218.4z"/>
	</g>
</g>
</svg>
