<?xml version="1.0" encoding="utf-8"?>
<!-- Generator: Adobe Illustrator 25.2.0, SVG Export Plug-In . SVG Version: 6.00 Build 0)  -->
<svg version="1.1" id="Capa_1" xmlns="http://www.w3.org/2000/svg" xmlns:xlink="http://www.w3.org/1999/xlink" x="0px" y="0px"
	 viewBox="0 0 512 512" style="enable-background:new 0 0 512 512;" xml:space="preserve">
<style type="text/css">
	.st0{fill:#020334;stroke:#FFFFFF;stroke-width:8;stroke-miterlimit:10;}
</style>
<g>
	<path class="st0" d="M485.6,394.2h-15.3V351c0-8-6.4-14.4-14.4-14.4H312c-23.5,0-44.4,11.3-57.5,28.9c-13.1-17.5-34-28.9-57.5-28.9
		H53.1c-8,0-14.4,6.4-14.4,14.4v43.2H23.4c-8,0-14.4,6.4-14.4,14.4S15.4,423,23.4,423h136c29.2,0,52.2,6.5,68.2,19.3
		c15.6,12.6,38.2,12.8,54,0c15.9-12.8,38.8-19.3,68.2-19.3h135.9c8,0,14.4-6.4,14.4-14.4C500,400.7,493.6,394.2,485.6,394.2z
		 M159.4,394.2H67.5v-28.8H197c23.8,0,43.2,19.4,43.2,43.2v7.2C219.5,401.5,192.4,394.2,159.4,394.2z M268.9,415.8v-7.2
		c0-23.8,19.4-43.2,43.2-43.2h129.5v28.8h-91.9C316.6,394.2,289.5,401.5,268.9,415.8z"/>
	<path class="st0" d="M49.2,134.7l104.6,29.9V236c0,5.5,3.1,10.5,8,12.9l63.6,31.8c7.1,3.5,13.5,8.1,19.2,13.5
		c5.6,5.3,14.3,5.3,19.9,0c5.7-5.5,12.2-10,19.2-13.5l63.6-31.8c4.9-2.4,8-7.4,8-12.9v-71.3l28.8-8.2v108.4c0,8,6.4,14.4,14.4,14.4
		s14.4-6.4,14.4-14.4V148.3l47.1-13.4c13.8-3.9,13.9-23.7,0-27.6L258.3,49.7c-2.6-0.8-5.3-0.8-7.9,0L49.1,107.2
		C35.3,111.1,35.3,130.8,49.2,134.7L49.2,134.7z M326.4,227.1l-55.6,27.8c-5.8,2.9-11.1,6.2-16.3,10.1c-5.1-3.8-10.5-7.2-16.3-10.1
		l-55.6-27.8v-54.3l68,19.5c2.6,0.8,5.3,0.8,7.9,0l68-19.5L326.4,227.1L326.4,227.1z M254.5,78.3l149,42.6l-149,42.6l-149-42.6
		L254.5,78.3z"/>
</g>
</svg>
