<?xml version="1.0" encoding="utf-8"?>
<!-- Generator: Adobe Illustrator 25.2.0, SVG Export Plug-In . SVG Version: 6.00 Build 0)  -->
<svg version="1.1" id="Capa_1" xmlns="http://www.w3.org/2000/svg" xmlns:xlink="http://www.w3.org/1999/xlink" x="0px" y="0px"
	 viewBox="0 0 512 512" style="enable-background:new 0 0 512 512;" xml:space="preserve">
<style type="text/css">
	.st0{fill:#020334;stroke:#FFFFFF;stroke-width:6;stroke-miterlimit:10;}
</style>
<g>
	<g>
		<path class="st0" d="M501.2,129.6c-3.7-2.7-8.4-3.6-12.8-2.4l-206.6,57.9c-6.3,1.8-10.6,7.5-10.6,13.9v196
			c-8.6-4.9-18.6-7.8-29.2-7.8c-32.2,0-58.5,26-58.5,57.9S209.7,503,242,503s58.5-26,58.5-57.9c0-1.5,0-177.2,0-177.2l177.4-49.7
			v118.9c-8.6-4.9-18.6-7.8-29.2-7.8c-32.2,0-58.5,26-58.5,57.9s26.2,57.9,58.5,57.9s58.5-26,58.5-57.9c0-1.3,0-246,0-246
			C507,136.7,504.9,132.4,501.2,129.6z M241.9,474.1c-16.1,0-29.2-13-29.2-28.9s13.1-28.9,29.2-28.9s29.2,13,29.2,28.9
			S258,474.1,241.9,474.1z M448.5,416.2c-16.1,0-29.2-13-29.2-28.9c0-16,13.1-28.9,29.2-28.9s29.2,13,29.2,28.9
			C477.8,403.2,464.6,416.2,448.5,416.2z M477.8,188.1l-177.4,49.7V210l177.4-49.7V188.1z"/>
	</g>
</g>
<g>
	<g>
		<path class="st0" d="M212,111.7c-32.4-23.5-56.2-46.9-72.6-71.3l-16.9-25c-3.6-5.3-10.2-7.7-16.4-5.8c-6.2,1.8-10.4,7.5-10.4,13.9
			v226.8c-8.6-4.9-18.6-7.8-29.2-7.8c-32.2,0-58.5,26-58.5,57.9s26.2,57.9,58.5,57.9s58.5-26,58.5-57.9V70.2
			c17.5,22.3,40.4,43.6,69.8,64.9c11.2,8.2,18,21.3,18,35c0,23.9-19.7,43.4-43.9,43.4c-8.1,0-14.6,6.5-14.6,14.5s6.5,14.5,14.6,14.5
			c40.3,0,73.1-32.5,73.1-72.4C241.9,147.2,230.7,125.3,212,111.7z M66.5,329.3c-16.1,0-29.2-13-29.2-28.9s13.1-28.9,29.2-28.9
			s29.2,13,29.2,28.9S82.6,329.3,66.5,329.3z"/>
	</g>
</g>
</svg>
