<?xml version="1.0" encoding="utf-8"?>
<!-- Generator: Adobe Illustrator 25.2.0, SVG Export Plug-In . SVG Version: 6.00 Build 0)  -->
<svg version="1.1" id="Capa_1" xmlns="http://www.w3.org/2000/svg" xmlns:xlink="http://www.w3.org/1999/xlink" x="0px" y="0px"
	 viewBox="0 0 512 512" style="enable-background:new 0 0 512 512;" xml:space="preserve">
<style type="text/css">
	.st0{fill:#020334;}
</style>
<g>
	<g>
		<path class="st0" d="M256,0C114.8,0,0,114.8,0,256s114.8,256,256,256s256-114.8,256-256S397.2,0,256,0z M256,494.9
			C124.3,494.9,17.1,387.7,17.1,256S124.3,17.1,256,17.1S494.9,124.3,494.9,256S387.7,494.9,256,494.9z"/>
	</g>
</g>
<g>
	<g>
		<path class="st0" d="M493.3,333c-39.2-24.5-66.6-98.3-66.6-179.4c0-26.1,2.7-51.4,8-75.2c1-4.6-1.9-9.2-6.5-10.2
			s-9.2,1.9-10.2,6.5c-5.6,25-8.4,51.6-8.4,78.9c0,88,30,165.9,74.6,193.8c1.4,0.9,3,1.3,4.5,1.3c2.8,0,5.6-1.4,7.2-4
			C498.5,340.7,497.3,335.4,493.3,333z"/>
	</g>
</g>
<g>
	<g>
		<path class="st0" d="M192.4,9.8c-1.7-0.7-3.7-0.8-5.5-0.3C76.9,40.3,0,141.6,0,256c0,141.2,114.8,256,256,256
			c42.1,0,83.9-10.5,120.8-30.3c2.2-1.2,3.8-3.4,4.3-5.8l2.7-13.7l0.2-1.1c4.2-26.1,8.5-53.1,8.5-81.3
			C392.5,206.6,312.1,58,192.4,9.8z M367.2,458.3l-2,10.2c-33.6,17.3-71.3,26.4-109.2,26.4C124.3,494.9,17.1,387.7,17.1,256
			c0-105.8,70.5-199.6,171.7-229.3c111.8,46.7,186.7,188.1,186.7,353C375.5,406.6,371.3,432.9,367.2,458.3z"/>
	</g>
</g>
<g>
	<g>
		<path class="st0" d="M199,444.2c-16.1-5.5-32.2-13.5-49.3-24.7c-4-2.6-9.2-1.5-11.8,2.5s-1.5,9.2,2.5,11.8
			c18.3,11.9,35.7,20.6,53.1,26.5c0.9,0.3,1.8,0.5,2.8,0.5c3.6,0,6.9-2.2,8.1-5.8C205.9,450.6,203.5,445.7,199,444.2z"/>
	</g>
</g>
<g>
	<g>
		<path class="st0" d="M109.1,387.2c-2-2.5-4.2-5.1-6.4-7.8c-6.6-7.9-14.2-16.9-18.2-24.9c-2.1-4.2-7.3-5.9-11.5-3.8
			s-5.9,7.3-3.8,11.5c4.9,9.8,13.1,19.5,20.4,28.2c2.2,2.6,4.3,5.1,6.2,7.5c1.7,2.1,4.2,3.2,6.7,3.2c1.9,0,3.8-0.6,5.3-1.9
			C111.4,396.2,112,390.9,109.1,387.2z"/>
	</g>
</g>
<g>
	<g>
		<path class="st0" d="M494.9,182.7c-249.8-2-397.1,81.7-476.8,152.6c-3.5,3.1-3.8,8.5-0.7,12c1.7,1.9,4,2.9,6.4,2.9
			c2,0,4-0.7,5.7-2.2c77.4-68.9,221.1-150.3,465.3-148.3h0.1c4.7,0,8.5-3.8,8.5-8.5C503.4,186.6,499.6,182.8,494.9,182.7z"/>
	</g>
</g>
<g>
	<g>
		<path class="st0" d="M77.7,85.3c-2.6,0-5.2-0.1-7.8-0.2c-4.7-0.1-8.7,3.4-8.9,8.1s3.4,8.7,8.1,8.9c2.8,0.1,5.7,0.3,8.6,0.3
			c112.9,0,204.8,109.1,204.8,243.2c0,59.7-14.5,112.6-41.9,152.8c-2.7,3.9-1.6,9.2,2.3,11.9c1.5,1,3.1,1.5,4.8,1.5
			c2.7,0,5.4-1.3,7.1-3.7c29.4-43.1,44.9-99.3,44.9-162.5C299.5,202.1,200,85.3,77.7,85.3z"/>
	</g>
</g>
</svg>
