<?xml version="1.0" encoding="utf-8"?>
<!-- Generator: Adobe Illustrator 25.2.0, SVG Export Plug-In . SVG Version: 6.00 Build 0)  -->
<svg version="1.1" id="Capa_1" xmlns="http://www.w3.org/2000/svg" xmlns:xlink="http://www.w3.org/1999/xlink" x="0px" y="0px"
	 viewBox="0 0 469.3 469.3" style="enable-background:new 0 0 469.3 469.3;" xml:space="preserve">
<style type="text/css">
	.st0{fill:#020334;stroke:#FFFFFF;stroke-width:10;stroke-miterlimit:10;}
</style>
<g>
	<g>
		<g>
			<path class="st0" d="M250.9,295L250.9,295l-52.2-51.6l0.6-0.6c35.7-39.9,61.2-85.7,76.2-134.2h60.2V67.4H191.9V26.3h-41.1v41.1H7
				v40.9h229.5c-13.9,39.7-35.5,77.3-65.1,110.1c-19.1-21.3-34.9-44.4-47.5-68.8H82.8c15,33.5,35.5,65.1,61.2,93.7L39.6,346.5
				l29.1,29.1l102.7-102.7l63.9,63.9L250.9,295z"/>
			<path class="st0" d="M366.5,190.7h-41.1L233,437.2h41.1l23.1-61.6h97.6l23.1,61.6H459L366.5,190.7z M312.6,334.5l33.4-89.1
				l33.4,89.1H312.6z"/>
		</g>
	</g>
</g>
</svg>
