<?xml version="1.0" encoding="utf-8"?>
<!-- Generator: Adobe Illustrator 25.2.0, SVG Export Plug-In . SVG Version: 6.00 Build 0)  -->
<svg version="1.1" id="Capa_1" xmlns="http://www.w3.org/2000/svg" xmlns:xlink="http://www.w3.org/1999/xlink" x="0px" y="0px"
	 viewBox="0 0 512 512" style="enable-background:new 0 0 512 512;" xml:space="preserve">
<style type="text/css">
	.st0{fill:#020334;stroke:#FFFFFF;stroke-width:7;stroke-miterlimit:10;}
</style>
<path class="st0" d="M113.9,192c-29.9,0-54.3,24.4-54.3,54.3s24.4,54.3,54.3,54.3s54.3-24.4,54.3-54.3S143.9,192,113.9,192z
	 M113.9,271.1c-13.7,0-24.8-11.1-24.8-24.8s11.1-24.8,24.8-24.8s24.8,11.1,24.8,24.8S127.6,271.1,113.9,271.1z"/>
<path class="st0" d="M210.1,320.3c-29.9,0-54.3,24.4-54.3,54.3s24.4,54.3,54.3,54.3s54.3-24.4,54.3-54.3
	C264.4,344.7,240.1,320.3,210.1,320.3z M210.1,399.4c-13.7,0-24.8-11.1-24.8-24.8s11.1-24.8,24.8-24.8s24.8,11.1,24.8,24.8
	C234.9,388.3,223.8,399.4,210.1,399.4z"/>
<path class="st0" d="M495.4,319.8c-0.1-0.1-0.2-0.2-0.3-0.3L444,271.3c28.6-21.6,41.5-59.9,29.8-95.4
	C418.3,8.7,205.4-44.3,78.5,80.6c-95,93.6-94.2,244.5-4,337.5c81,83.5,208.7,95.2,302.9,33.6c44.1-28.9,23.8-97.6-29-97.6
	c-39.4,0-46.1-55.1-8.8-64.6l90.1,95.5c0.1,0.1,0.2,0.2,0.3,0.3c18.1,18.1,47.4,18.1,65.5,0C513.5,367.2,513.5,337.9,495.4,319.8
	L495.4,319.8z M304.6,366.2c11.9,11.2,27.4,17.4,43.8,17.4c23.6,0,32.5,30.5,12.8,43.4c-82.5,54-194.5,43.8-265.5-29.4
	c-79.7-82.2-79.2-214,3.8-295.7C210.8-7.6,397,38.2,445.7,185.2c8.3,24.9-2.1,51.9-23.7,65.4l-82-77.4c5-23.8-1.9-49-19.9-67
	C297.5,83.6,226.3,72.3,195.4,69c-9.4-1-17.3,6.9-16.3,16.3c3.4,31,14.6,102.1,37.2,124.7c18,18,43.2,24.9,67,19.9l34.5,36.6
	C281.1,286.5,273.6,336.8,304.6,366.2L304.6,366.2z M237.2,189.1c-11.1-11.1-21.1-53.4-26.3-88.3c34.9,5.2,77.2,15.2,88.3,26.3
	c17.1,17.1,17.1,44.9,0,62S254.4,206.3,237.2,189.1L237.2,189.1z M474.6,364.4c-6.5,6.5-17,6.5-23.6,0.1
	c-7.6-8-132.2-140.1-139.1-147.4c5.8-4.3,11-9.5,15.4-15.4l147.4,139.1C481.1,347.4,481.1,357.9,474.6,364.4z"/>
</svg>
