<?xml version="1.0" encoding="utf-8"?>
<!-- Generator: Adobe Illustrator 25.2.0, SVG Export Plug-In . SVG Version: 6.00 Build 0)  -->
<svg version="1.1" id="Capa_1" xmlns="http://www.w3.org/2000/svg" xmlns:xlink="http://www.w3.org/1999/xlink" x="0px" y="0px"
	 viewBox="0 0 388.4 388.4" style="enable-background:new 0 0 388.4 388.4;" xml:space="preserve">
<style type="text/css">
	.st0{fill:#020334;stroke:#020334;stroke-miterlimit:10;}
</style>
<g>
	<g>
		<path class="st0" d="M356.4,292h-4.8c0-0.4,0-0.4,0-0.8v-142c0-30.8-25.2-56-56-56H238c17.6-14.8,23.6-38.8,23.6-54
			c0-1.6-0.8-3.6-2-4.8s-2.8-2-4.8-2c-1.2,0-32,0.4-52,20.8c-3.6,3.6-6,7.6-8.4,12c-2.4-4.4-5.2-8.4-8.4-12
			c-19.6-20.4-50.4-20.8-52-20.8c-3.6,0-6.8,3.2-6.8,6.8c0,1.2,0,31.2,20,51.2c1.2,1.2,2.4,2,3.6,3.2H91.6c-30.8,0-56,25.2-56,56
			v141.6c0,0.4,0,0.4,0,0.8H32c-17.6,0-32,14.4-32,32s14.4,32,32,32h324.4c17.6,0,32-14.4,32-32C388.4,306,374,292,356.4,292z
			 M212.8,62.8c10.4-10.8,25.6-14.8,34.8-16c-1.2,8.8-4.8,23.6-15.2,34c-7.6,7.6-18,12-30.4,12.4c0-1.6-0.4-2.8-0.4-4.4
			C202.4,78.4,206,69.6,212.8,62.8z M141.2,46.8c8.8,1.2,24.4,4.8,34.8,16c6.4,6.8,10,15.6,11.2,26.4c0,1.2-0.4,2.8-0.4,4.4
			C151.6,91.2,143.2,60.8,141.2,46.8z M91.6,106.8h204c22,0,40.4,17.2,42.4,38.8H208.4c-3.6,0-6.8,3.2-6.8,6.8v48.4
			c0,5.6-3.6,10-8,10s-8-4.4-8-10v-48.4c0-3.6-3.2-6.8-6.8-6.8h-31.2c-3.6,0-6.8,3.2-6.8,6.8v30c0,5.6-3.6,10-8,10s-8-4.8-8-10
			v-25.6v-4.4c0-3.6-3.2-6.8-6.8-6.8c-3.6,0-6.8,3.2-6.8,6.8v4.4v25.6v12.8c0,6.8-5.6,12.4-12.4,12.4s-12.4-5.6-12.4-12.4v-38.4
			c0-0.8,0-1.6,0.4-2.8c0.4-2,0-4-1.2-5.6s-3.2-2.4-5.2-2.4H49.2C51.2,124,69.6,106.8,91.6,106.8z M49.2,291.2v-132h24v36
			c0,14.4,11.6,26,26,26c11.2,0,20.8-7.6,24.4-17.6c2.8,1.6,6,2.4,9.6,2.4c12,0,21.6-10.4,21.6-23.6v-23.2h17.6v41.6
			c0,13.2,9.6,23.6,21.6,23.6s21.6-10.4,21.6-23.6v-41.6h122.8v132c0,0.4,0,0.4,0,0.8H49.2C49.2,291.6,49.2,291.2,49.2,291.2z
			 M356.4,342h-324c-10,0-18.4-8.4-18.4-18.4s8.4-18.4,18.4-18.4h324.4c10,0,18.4,8.4,18.4,18.4C374.8,334,366.8,342,356.4,342z"/>
	</g>
</g>
</svg>
