<?xml version="1.0" encoding="utf-8"?>
<!-- Generator: Adobe Illustrator 25.2.0, SVG Export Plug-In . SVG Version: 6.00 Build 0)  -->
<svg version="1.1" id="Icons" xmlns="http://www.w3.org/2000/svg" xmlns:xlink="http://www.w3.org/1999/xlink" x="0px" y="0px"
	 viewBox="0 0 512 512" style="enable-background:new 0 0 512 512;" xml:space="preserve">
<style type="text/css">
	.st0{fill:#2A6DF5;stroke:#2A6DF5;stroke-width:4;stroke-miterlimit:10;}
</style>
<path class="st0" d="M393.2,499.9h-281c-8.6,0-15.7-7-15.7-15.7v-295c0.1-55.7,45.2-100.8,100.9-100.9H308
	c55.7,0.1,100.8,45.2,100.9,100.9v295C408.9,492.9,401.9,499.9,393.2,499.9L393.2,499.9z M197.4,102.2c-48.1,0.1-87,39-87.1,87.1
	v295c0,1,0.8,1.8,1.8,1.8l0,0h281.1c1,0,1.8-0.8,1.8-1.8v-295c-0.1-48.1-39-87-87.1-87.1L197.4,102.2z"/>
<path class="st0" d="M447.3,490.6H395V335.8h25.8c22.4,0,40.5,18.1,40.5,40.5v100.2C461.4,484.2,455.1,490.5,447.3,490.6
	L447.3,490.6z M408.9,476.7h38.4l0.2-100.4c0-14.7-11.9-26.6-26.7-26.7h-12L408.9,476.7z"/>
<path class="st0" d="M110.3,490.6H58.1c-7.8,0-14-6.3-14-14V376.3c0-22.4,18.1-40.5,40.5-40.5h25.8L110.3,490.6z M84.5,349.6
	c-14.7,0-26.6,11.9-26.7,26.7v100.2l38.6,0.2v-127H84.5V349.6z"/>
<path class="st0" d="M360.9,499.9H144.2V377.7c0-10.4,8.5-18.9,18.9-18.9H342c10.4,0,18.9,8.5,18.9,18.9V499.9z M158,486.1h189
	V377.7c0-2.8-2.3-5.1-5.1-5.1H163.1c-2.8,0-5,2.3-5.1,5.1V486.1z"/>
<path class="st0" d="M316.4,409.8H188.7c-3.8,0-6.9-3.1-6.9-6.9s3.1-6.9,6.9-6.9h127.7c3.8,0,6.9,3.1,6.9,6.9
	C323.3,406.7,320.2,409.8,316.4,409.8z"/>
<path class="st0" d="M296.2,428.1c-3.8,0-6.9-3.1-6.9-6.9v-18.3c0-3.8,3.1-6.9,6.9-6.9s6.9,3.1,6.9,6.9v18.3
	C303.1,425,300,428.1,296.2,428.1z"/>
<path class="st0" d="M325.5,270.3h-41c-3.8,0-6.9-3.1-6.9-6.9s3.1-6.9,6.9-6.9h41c15.9,0,31-7.2,40.9-19.7l30.2-37.8
	c2.4-2.9,6.8-3.3,9.7-0.9c2.8,2.4,3.3,6.6,1.1,9.5l-30.2,37.8C364.6,261.2,345.6,270.3,325.5,270.3z"/>
<path class="st0" d="M220.9,270.3h-41c-20.1,0.1-39.2-9.1-51.7-24.9L98,207.6c-2.4-3-1.9-7.3,1.1-9.7s7.3-1.9,9.7,1.1l0,0l30.2,37.8
	c9.9,12.5,25,19.7,40.9,19.7h41c3.8,0,6.9,3.1,6.9,6.9C227.9,267.2,224.8,270.3,220.9,270.3L220.9,270.3z"/>
<path class="st0" d="M276.1,296.1h-46.7c-7.5,0-13.6-6.1-13.6-13.6v-39.9c0-7.5,6.1-13.6,13.6-13.6h46.7c7.5,0,13.6,6.1,13.6,13.6
	v39.9C289.7,290,283.6,296.1,276.1,296.1z M229.6,242.9v39.7l46.5-0.2l-0.2-39.7L229.6,242.9z"/>
<path class="st0" d="M296.1,102.2h-86.7c-3.8,0-6.9-3.1-6.9-6.9V65.8c0-7.8,6.3-14.1,14.1-14.1h72.3c7.8,0,14.1,6.3,14.1,14.1v29.4
	C303,99.1,299.9,102.2,296.1,102.2z M216.3,88.3h72.9V65.8l-72.6-0.3l-0.3,0.3V88.3z"/>
<path class="st0" d="M379.7,135.3c-3.8,0-6.9-3.1-6.9-6.9c0-0.6,0.1-1.2,0.2-1.8l21.1-78.7c1.2-4.3-1.4-8.8-5.7-9.9l0,0l-30.8-8.3
	c-4.3-1.2-8.8,1.4-9.9,5.7c0,0,0,0,0,0.1l-16.8,62.9c-0.8,3.7-4.5,6.1-8.2,5.3c-3.7-0.8-6.1-4.5-5.3-8.2c0-0.2,0.1-0.4,0.2-0.7
	l16.8-62.9c3.2-11.7,15.1-18.6,26.8-15.6l30.8,8.3c11.6,3.2,18.6,15.1,15.6,26.8l-21.1,78.7C385.5,133.2,382.8,135.3,379.7,135.3
	L379.7,135.3z"/>
<path class="st0" d="M125.7,135.3c-3.1,0-5.9-2.1-6.7-5.1L98,51.5c-3-11.7,3.9-23.7,15.5-26.9l30.8-8.3c11.7-3,23.7,3.9,26.9,15.5
	l16.8,63c1,3.7-1.2,7.5-4.9,8.5s-7.5-1.2-8.5-4.9c0,0,0,0,0-0.1l-16.8-62.9c-1.1-4.3-5.6-6.9-9.9-5.8h-0.1L117.1,38
	c-4.3,1.1-6.9,5.6-5.8,9.9c0,0,0,0,0,0.1l21.1,78.6c1,3.7-1.2,7.5-4.9,8.5l0,0C127,135.2,126.4,135.3,125.7,135.3z"/>
</svg>
