<?xml version="1.0" encoding="utf-8"?>
<!-- Generator: Adobe Illustrator 25.4.1, SVG Export Plug-In . SVG Version: 6.00 Build 0)  -->
<svg version="1.1" id="Layer_1" xmlns="http://www.w3.org/2000/svg" xmlns:xlink="http://www.w3.org/1999/xlink" x="0px" y="0px"
	 viewBox="0 0 404 404" style="enable-background:new 0 0 404 404;" xml:space="preserve">
<style type="text/css">
	.st0{fill:#2A6DF5;}
</style>
<g>
	<g>
		<g>
			<path class="st0" d="M246,175.6c-4.4,0-8,3.6-8,8v12c0,4.4,3.6,8,8,8s8-3.6,8-8v-12C254,179.2,250.4,175.6,246,175.6z"/>
			<path class="st0" d="M362.8,175.6l34-85.6c2-4.8,1.6-10.4-1.2-14.8c-2.8-4.8-8-7.2-13.2-7.2H254v-8c0-22-18-40-40-40H78V8
				c0-4.4-3.6-8-8-8s-8,3.6-8,8v20v192v168H14c-4.4,0-8,3.6-8,8s3.6,8,8,8h112c4.4,0,8-3.6,8-8s-3.6-8-8-8H78V227.6h112.4v8
				c0,22,18,40,40,40H382c5.6,0,10.4-2.8,13.2-7.2c3.2-4.8,3.6-10.4,1.2-15.2L362.8,175.6z M230.4,259.6c-13.2,0-24-10.8-24-24v-16
				c0-4.4-3.6-8-8-8c-0.8,0-1.2,0-2,0.4c-0.8,0-1.2-0.4-2-0.4H78v-176h136c13.2,0,24,10.8,24,24v88c0,4.4,3.6,8,8,8s8-3.6,8-8v-64
				h128V84l-35.2,88.8c-0.8,2-0.8,4,0,6l35.2,80.8H230.4z"/>
		</g>
	</g>
</g>
</svg>
