<?xml version="1.0" encoding="utf-8"?>
<!-- Generator: Adobe Illustrator 25.2.0, SVG Export Plug-In . SVG Version: 6.00 Build 0)  -->
<svg version="1.1" id="Layer_1" xmlns="http://www.w3.org/2000/svg" xmlns:xlink="http://www.w3.org/1999/xlink" x="0px" y="0px"
	 viewBox="0 0 416.4 416.4" style="enable-background:new 0 0 416.4 416.4;" xml:space="preserve">
<style type="text/css">
	.st0{fill:#2A6DF5;stroke:#2A6DF5;stroke-miterlimit:10;}
</style>
<g>
	<g>
		<g>
			<path class="st0" d="M416,195.8c0-0.4,0-0.4-0.4-0.8c0-0.4-0.4-0.4-0.4-0.8c0-0.4-0.4-0.4-0.4-0.8l-0.4-0.4
				c0-0.4-0.4-0.4-0.4-0.8l-10-8.8c-13.2-11.2-22.8-26.4-27.6-43.6l-1.6-4.4c-12.4-42-44.8-74.4-87.2-87.2l-32.8-9.6
				c-2.4-0.8-5.2-0.4-7.2,1.2c-2,1.6-3.2,4-3.2,6.4V293c-3.6-2.8-8-5.2-13.2-6.8c-13.6-4.8-30-5.2-46-0.8
				c-34.8,9.2-56.4,36.4-50,61.2c3.2,12.4,13.2,22.4,28,27.6c7.2,2.4,15.2,4,23.6,4c7.2,0,14.8-1.2,22.4-3.2
				c34.4-9.2,56.4-36,50-60.8c0.8-1.2,1.2-2.4,1.2-4V118.6l17.6,6.8c20.8,7.6,38.8,23.2,48.8,42.8l1.2,2.4
				c12,22.4,34.8,36.4,60.4,36.4h20c0,0,0,0,0.4,0s0.4,0,0.8,0s0.4,0,0.8,0s0.4,0,0.8-0.4c0.4,0,0.4,0,0.8-0.4
				c0.4,0,0.4-0.4,0.8-0.4s0.4-0.4,0.8-0.4l0.4-0.4c0.4,0,0.4-0.4,0.8-0.4c-0.4-0.4-0.4-0.4,0-0.8c0-0.4,0.4-0.4,0.4-0.8
				c0-0.4,0.4-0.4,0.4-0.8c0-0.4,0.4-0.4,0.4-0.8c0-0.4,0-0.4,0.4-0.8c0-0.4,0-0.4,0-0.8c0-0.4,0-0.4,0-0.8v-0.4c0,0,0,0,0-0.4
				s0-0.4,0-0.8c0-0.4,0-0.4,0-0.8S416.4,196.2,416,195.8z M205.2,360.6c-12.8,3.6-26,3.2-36.4-0.4c-9.6-3.2-16-9.2-18-16.4
				c-4.4-16,13.2-35.2,38.4-41.6c6-1.6,12.4-2.4,18.4-2.4c6.4,0,12.4,0.8,18,2.8c9.6,3.2,16,9.2,18,16.4
				C248,334.6,230.4,353.8,205.2,360.6z M342.4,163.4l-1.2-2.4c-12-23.6-32.8-41.6-57.6-50.4l-23.2-9.2v-44l22.4,6.4
				c36.8,10.8,65.2,39.2,76.4,76.4l1.6,4.4c4.8,17.6,14,33.2,26.8,45.6C368.4,190.6,351.2,180.2,342.4,163.4z"/>
			<path class="st0" d="M48.4,91h148.4c4.4,0,8-3.6,8-8s-3.6-8-8-8H48.4c-4.4,0-8,3.6-8,8S44,91,48.4,91z"/>
			<path class="st0" d="M20,75H8c-4.4,0-8,3.6-8,8s3.6,8,8,8h12c4.4,0,8-3.6,8-8S24.4,75,20,75z"/>
			<path class="st0" d="M48.4,139h128.4c4.4,0,8-3.6,8-8c0-4.4-3.6-8-8-8H48.4c-4.4,0-8,3.6-8,8C40.4,135.4,44,139,48.4,139z"/>
			<path class="st0" d="M20,123H8c-4.4,0-8,3.6-8,8c0,4.4,3.6,8,8,8h12c4.4,0,8-3.6,8-8C28,126.6,24.4,123,20,123z"/>
			<path class="st0" d="M48.4,187h160.4c4.4,0,8-3.6,8-8s-3.6-8-8-8H48.4c-4.4,0-8,3.6-8,8S44,187,48.4,187z"/>
			<path class="st0" d="M20,171H8c-4.4,0-8,3.6-8,8s3.6,8,8,8h12c4.4,0,8-3.6,8-8S24.4,171,20,171z"/>
			<path class="st0" d="M164.8,227c0-4.4-3.6-8-8-8H48.4c-4.4,0-8,3.6-8,8s3.6,8,8,8h108.4C161.2,235,164.8,231.4,164.8,227z"/>
			<path class="st0" d="M20,219H8c-4.4,0-8,3.6-8,8s3.6,8,8,8h12c4.4,0,8-3.6,8-8S24.4,219,20,219z"/>
		</g>
	</g>
</g>
</svg>
