<?xml version="1.0" encoding="utf-8"?>
<!-- Generator: Adobe Illustrator 25.2.0, SVG Export Plug-In . SVG Version: 6.00 Build 0)  -->
<svg version="1.1" id="Layer_1" xmlns="http://www.w3.org/2000/svg" xmlns:xlink="http://www.w3.org/1999/xlink" x="0px" y="0px"
	 viewBox="0 0 411.6 411.6" style="enable-background:new 0 0 411.6 411.6;" xml:space="preserve">
<style type="text/css">
	.st0{fill:#2A6DF5;stroke:#2A6DF5;stroke-miterlimit:10;}
</style>
<g>
	<g>
		<g>
			<path class="st0" d="M328,268c-4.4,0-8,3.6-8,8v72c0,13.2-10.8,24-24,24H40c-13.2,0-24-10.8-24-24V124c0-13.2,10.8-24,24-24h176
				c4.4,0,8-3.6,8-8s-3.6-8-8-8H40c-22,0-40,18-40,40v224c0,22,18,40,40,40h256c22,0,40-18,40-40v-72C336,271.6,332.4,268,328,268z"
				/>
			<path class="st0" d="M328,220.4c-4.4,0-8,3.6-8,8V240c0,4.4,3.6,8,8,8s8-3.6,8-8v-11.6C336,224,332.4,220.4,328,220.4z"/>
			<path class="st0" d="M400,58l-22.8-22.8c-15.6-15.6-40.8-15.6-56.4,0l-156,156c-3.2,3.2-4.8,7.2-4.8,11.2v62l-5.6,5.6
				c-3.2,3.2-3.2,8,0,11.2c1.6,2,3.6,2.8,5.6,2.8s4-0.8,5.6-2.4l5.6-5.6l0.4-0.4h61.2c4.4,0,8.4-1.6,11.2-4.8l137.6-137.6
				c0.4-0.4,1.2-0.8,1.6-1.2s0.8-1.2,1.2-1.6l15.6-15.6c7.6-7.6,11.6-17.6,11.6-28.4C411.6,75.6,407.6,65.6,400,58z M228,259.6h-52
				V208h16v24c0,6.8,5.2,12,12,12h24V259.6z M244,248.4V240c0-6.8-5.2-12-12-12h-24v-24c0-6.8-5.2-12-12-12h-9.2L309.2,69.6
				l56.8,56.8L244,248.4z M388.8,103.6l-11.2,11.2L320.8,58L332,46.8c9.2-9.2,24.4-9.2,34,0l22.8,22.8c4.4,4.4,6.8,10.4,6.8,16.8
				C395.6,92.8,393.2,99.2,388.8,103.6z"/>
		</g>
	</g>
</g>
</svg>
