<?xml version="1.0" encoding="utf-8"?>
<!-- Generator: Adobe Illustrator 25.2.0, SVG Export Plug-In . SVG Version: 6.00 Build 0)  -->
<svg version="1.1" id="Capa_1" xmlns="http://www.w3.org/2000/svg" xmlns:xlink="http://www.w3.org/1999/xlink" x="0px" y="0px"
	 viewBox="0 0 512 512" style="enable-background:new 0 0 512 512;" xml:space="preserve">
<style type="text/css">
	.st0{fill:#2A6DF5;}
</style>
<g>
	<path class="st0" d="M47.5,128.7l86.2,44.9v74.6c0,10.3,6.9,24.9,39.8,35.7c22.2,7.3,51.5,11.4,82.5,11.4s60.4-4,82.5-11.4
		c32.9-10.9,39.8-25.4,39.8-35.7c0-0.1,0-0.1,0-0.2v-74.4l25.2-13.1v50.6c0,5.5,4.5,10,10,10s10-4.5,10-10v-61l41-21.3
		c3.3-1.7,5.4-5.1,5.4-8.9s-2.1-7.1-5.4-8.9L260.6,4.8c-2.9-1.5-6.3-1.5-9.2,0L47.5,111c-3.3,1.7-5.4,5.1-5.4,8.9
		S44.2,127,47.5,128.7z M358.3,221c-5.2-3-11.7-5.9-19.8-8.5c-22.2-7.3-51.5-11.4-82.5-11.4s-60.4,4-82.5,11.4
		c-8.1,2.7-14.5,5.5-19.8,8.5v-74.7c0-3.3,6.9-10.4,26-16.7c20.2-6.7,47.3-10.4,76.3-10.4s56,3.7,76.3,10.4
		c19.1,6.3,26,13.5,26,16.7V221L358.3,221z M332.3,264.9c-20.2,6.7-47.3,10.4-76.3,10.4s-56-3.7-76.3-10.4
		c-19.1-6.3-26-13.5-26-16.7s6.9-10.4,26-16.7c20.2-6.7,47.3-10.4,76.3-10.4s56,3.7,76.3,10.4c19,6.3,25.9,13.4,26,16.7v0.1l0,0
		C358.3,251.5,351.3,258.6,332.3,264.9L332.3,264.9z M423.5,127.5v-15.3l14.7,7.7L423.5,127.5z M256,25l147.5,76.8V138l-25.2,13
		v-4.7c0-10.3-6.9-24.9-39.8-35.7c-22.2-7.3-51.5-11.4-82.5-11.4s-60.4,4-82.5,11.4c-32.9,10.9-39.8,25.4-39.8,35.7v4.7l-59.9-31.2
		L256,25z"/>
	<path class="st0" d="M479.3,316H10c-5.5,0-10,4.5-10,10c0,5.3,4,9.6,9.2,10c0.3,0,0.5,0,0.8,0c3.1,0.7,12.7,15.2,12.7,44.4
		c0,29.3-9.7,43.8-12.7,44.4c-5.5,0-10,4.5-10,10s4.5,10,10,10h197v53.5c0,3.5,1.8,6.7,4.7,8.5s6.6,2,9.7,0.5l34.7-17l34.7,17
		c1.4,0.7,2.9,1,4.4,1c1.8,0,3.7-0.5,5.3-1.5c2.9-1.8,4.7-5,4.7-8.5v-53.5h174.2c21.5,0,32.7-32.4,32.7-64.4
		C512,348.4,500.8,316,479.3,316L479.3,316z M256,423.3c-23.7,0-43-19.3-43-43s19.3-43,43-43s43,19.3,43,43S279.7,423.3,256,423.3z
		 M34.3,336h177C200,347.4,193,363,193,380.3c0,17.4,7.1,33.1,18.5,44.5H34.3c5.6-12.1,8.4-28.3,8.4-44.4
		C42.7,364.3,39.9,348.1,34.3,336L34.3,336z M285.1,482.3l-24.7-12.1c-2.8-1.4-6-1.4-8.8,0l-24.7,12.1v-37.4H285L285.1,482.3
		L285.1,482.3z M479.3,424.8H300.5c11.4-11.4,18.5-27.1,18.5-44.5c0-17.3-7-32.9-18.3-44.3h178.5c3.1,0.7,12.7,15.2,12.7,44.4
		C492,409.7,482.3,424.2,479.3,424.8L479.3,424.8z"/>
</g>
</svg>
