<?xml version="1.0" encoding="utf-8"?>
<!-- Generator: Adobe Illustrator 25.2.0, SVG Export Plug-In . SVG Version: 6.00 Build 0)  -->
<svg version="1.1" id="Capa_1" xmlns="http://www.w3.org/2000/svg" xmlns:xlink="http://www.w3.org/1999/xlink" x="0px" y="0px"
	 viewBox="0 0 512 512" style="enable-background:new 0 0 512 512;" xml:space="preserve">
<style type="text/css">
	.st0{fill:#2A6DF5;stroke:#2A6DF5;stroke-width:5;stroke-miterlimit:10;}
</style>
<g>
	<path class="st0" d="M394.7,139.8c-2.2-3.5-6.8-4.6-10.3-2.4c-3.5,2.2-4.6,6.8-2.4,10.3c13,21.1,20.4,45,21.7,69.8h-37.4
		c-3.5-14.7-16.8-25.7-32.5-25.7s-29,11-32.5,25.7h-37.7v-44.1c0-4.1-3.4-7.5-7.5-7.5c-10.1,0-18.4-8.2-18.4-18.4
		c0-10.1,8.2-18.4,18.4-18.4c4.1,0,7.5-3.4,7.5-7.5V77.5c37.8,1.9,72.8,17.8,99.2,45.4c3.5,3,7,3.1,10.6,0.2c3-2.9,3.1-7.6,0.2-10.6
		c-31-32.3-72.7-50.1-117.5-50.2H256h-0.1c-39.6,0-77.6,14.3-107.3,40.2c-3.1,2.7-3.4,7.5-0.7,10.6s7.5,3.4,10.6,0.7
		c25-21.9,56.7-34.7,90-36.3v37.4c-14.8,3.4-25.9,16.7-25.9,32.5s11.1,29.1,25.9,32.5v37.4h-44.3c-4.1,0-7.5,3.4-7.5,7.5v0.2
		c0,10.1-8.2,18.4-18.4,18.4c-10.1,0-18.4-8.2-18.4-18.4v-0.2c0-4.1-3.4-7.5-7.5-7.5h-44.1c1.5-29.4,11.4-57.2,29-80.7
		c2.5-3.3,1.8-8-1.5-10.5s-8-1.8-10.5,1.5c-21,28.2-32.1,61.8-32.2,97.2c-1.5,61.9,38,121.2,93.2,147.4c6.3,3,10.3,9.4,10.3,16.5
		v14.9c-15.4,0-25.9,8.2-25.9,23s10.2,23,25.9,23v34.1c0,14.8,13.3,28.1,28.1,28.1H287c14.8,0,28.1-13.2,28.1-28.1v-34.1
		c17.6,0,25.9-9.3,25.9-23c0-14.3-9-23-25.9-23v-14.9c0-7,4.1-13.5,10.4-16.5c56.8-26.9,92.1-84.9,93.1-147.3
		C418.8,194.8,410.4,165.3,394.7,139.8L394.7,139.8z M192.8,358.7c-49.2-23.3-81.7-72.3-84.4-126.3h37.4
		c3.3,14.9,16.7,26.1,32.6,26.1s29.2-11.2,32.6-26.1h37.6v44.4c0,4.1,3.4,7.5,7.5,7.5c10.1,0,18.4,8.2,18.4,18.4
		c0,10.1-8.2,18.4-18.4,18.4c-4.1,0-7.5,3.4-7.5,7.5v75.1h-36.8v-14.9C211.7,376,204.3,364.2,192.8,358.7L192.8,358.7z M287.2,497
		h-62.3c-9.5,0-13.6-8.5-13.1-16h88.5C300.3,489,297.7,497,287.2,497z M318.1,434.8h-46.4c-4.1,0-7.5,3.4-7.5,7.5l0,0l0,0
		c0,4.1,3.4,7.5,7.5,7.5h28.5V466h-88.5v-16.1H239c4.1,0,7.5-3.4,7.5-7.5l0,0l0,0c0-4.1-3.4-7.5-7.5-7.5h-45.2
		c-11.9,0.2-12.2-16.1,0-16.1H318C328.5,418.7,330,434.8,318.1,434.8z M319.2,358.7c-11.5,5.5-19,17.3-19,30.1v14.9h-36.8v-68.5
		c14.8-3.4,25.9-16.7,25.9-32.5s-11.1-29.1-25.9-32.5v-37.8h44.3c4.1,0,7.5-3.3,7.5-7.5c0.1-10.1,8.3-18.3,18.4-18.3
		s18.3,8.2,18.4,18.3c0,4.1,3.4,7.5,7.5,7.5h44.1C400.9,286.4,368.4,335.4,319.2,358.7L319.2,358.7z"/>
	<g>
		<g>
			<path class="st0" d="M256,46.1c-4.1,0-7.5-3.4-7.5-7.5V7.5c0-4.1,3.4-7.5,7.5-7.5s7.5,3.4,7.5,7.5v31.1
				C263.5,42.7,260.1,46.1,256,46.1z"/>
		</g>
		<g>
			<path class="st0" d="M360.9,74.2c-3.6-2.1-4.8-6.7-2.7-10.2l15.5-27c2.1-3.6,6.7-4.8,10.2-2.7c3.6,2.1,4.8,6.7,2.7,10.2
				l-15.5,26.9C369.8,73.8,365,76.5,360.9,74.2z"/>
		</g>
		<g>
			<g>
				<path class="st0" d="M437.7,151c-2.1-3.6-0.8-8.2,2.7-10.2l26.9-15.5c3.6-2.1,8.2-0.8,10.2,2.7c2.1,3.6,0.8,8.2-2.7,10.2
					L448,153.7C443.7,156.2,439.1,153.4,437.7,151L437.7,151z"/>
			</g>
			<g>
				<path class="st0" d="M34.4,383.9c-1.9-3.7-0.8-8.2,2.7-10.2L64,358.1c3.6-2.1,8.2-0.8,10.2,2.7c2.1,3.6,0.8,8.2-2.7,10.2
					l-26.9,15.5C40.3,389,36.3,387.5,34.4,383.9z"/>
			</g>
		</g>
		<g>
			<path class="st0" d="M140.8,71.4l-15.5-26.9c-2.1-3.6-0.8-8.2,2.7-10.2c3.6-2.1,8.2-0.8,10.2,2.7l15.5,26.9
				c2.1,3.6,0.8,8-2.7,10.2C147,76.7,142.2,73.8,140.8,71.4L140.8,71.4z"/>
		</g>
		<g>
			<g>
				<path class="st0" d="M64,153.7l-26.9-15.5c-3.6-2.1-4.8-6.7-2.7-10.2c2.1-3.6,6.7-4.8,10.2-2.7l26.9,15.5
					c3.6,2.1,5.4,7,2.7,10.2C71,155,67.8,155.5,64,153.7L64,153.7z"/>
			</g>
			<g>
				<path class="st0" d="M467.4,386.6l-26.9-15.5c-3.6-2.1-4.8-6.7-2.7-10.2c2.1-3.6,6.7-4.8,10.2-2.7l26.9,15.5
					c3.6,2.1,5,6.8,2.7,10.2C475.2,387.6,471.7,389.2,467.4,386.6z"/>
			</g>
		</g>
		<g>
			<g>
				<path class="st0" d="M38.6,263.4h-31c-4.1,0-7.5-3.4-7.5-7.5s3.4-7.5,7.5-7.5h31.1c4.1,0,7.5,3.4,7.5,7.5S42.8,263.4,38.6,263.4
					z"/>
			</g>
			<g>
				<path class="st0" d="M504.4,263.4h-31.1c-4.1,0-7.5-3.4-7.5-7.5s3.4-7.5,7.5-7.5h31.1c4.1,0,7.5,3.4,7.5,7.5
					S508.6,263.4,504.4,263.4z"/>
			</g>
		</g>
	</g>
</g>
</svg>
