<?xml version="1.0" encoding="utf-8"?>
<!-- Generator: Adobe Illustrator 25.2.0, SVG Export Plug-In . SVG Version: 6.00 Build 0)  -->
<svg version="1.1" id="Layer_1" xmlns="http://www.w3.org/2000/svg" xmlns:xlink="http://www.w3.org/1999/xlink" x="0px" y="0px"
	 viewBox="0 0 444.2 444.2" style="enable-background:new 0 0 444.2 444.2;" xml:space="preserve">
<style type="text/css">
	.st0{fill:#2A6DF5;stroke:#2A6DF5;stroke-miterlimit:10;}
</style>
<g>
	<g>
		<g>
			<path class="st0" d="M404.2,44.9h-288c-22,0-40,18-40,40v14l-46.4,12.8c-10.4,2.8-19.2,9.2-24.4,18.4s-6.8,20-4,30.4l56,208.8
				c2.8,10.4,9.2,19.2,18.4,24.4c6,3.6,13.2,5.6,20,5.6c3.6,0,6.8-0.4,10.4-1.2l183.2-49.2h114.8c22,0,40-18,40-40v-224
				C444.2,62.9,426.2,44.9,404.2,44.9z M102.2,382.5c-6.4,1.6-12.8,0.8-18.4-2.4c-5.6-3.2-9.6-8.4-11.2-14.8l-56-208.8
				c-1.6-6.4-0.8-12.8,2.4-18.4s8.4-9.6,14.8-11.2l42.4-11.6v193.6c0,22,18,40,40,40h111.2L102.2,382.5z M428.2,308.9
				c0,13.2-10.8,24-24,24h-288c-13.2,0-24-10.8-24-24v-224c0-13.2,10.8-24,24-24h288c13.2,0,24,10.8,24,24v113.6l-38-38
				c-6.4-6.4-16-6.4-22.4,0l-91.6,91.2l-0.4-0.4l-46.4-46.4c-6-6-16.4-6-22.4,0l-39.2,39.2c-3.2,3.2-3.2,8,0,11.2
				c3.2,3.2,8,3.2,11.2,0l39.2-39.2l46.4,46.4l0.4,0.4l-32.4,32.4c-3.2,3.2-3.2,8,0,11.2c1.6,1.6,3.6,2.4,5.6,2.4s4-0.8,5.6-2.4
				L379,171.7l47.6,47.6c0.4,0.4,1.2,0.8,1.6,1.2V308.9L428.2,308.9z"/>
			<path class="st0" d="M148.6,263.3l-8,8c-3.2,3.2-3.2,8,0,11.2c1.6,1.6,3.6,2.4,5.6,2.4s4-0.8,5.6-2.4l8-8c3.2-3.2,3.2-8,0-11.2
				C156.6,260.1,151.8,260.1,148.6,263.3z"/>
			<path class="st0" d="M204.2,132.9c0-22-18-40-40-40s-40,18-40,40s18,40,40,40S204.2,154.9,204.2,132.9z M164.2,156.9
				c-13.2,0-24-10.8-24-24s10.8-24,24-24s24,10.8,24,24S177.4,156.9,164.2,156.9z"/>
		</g>
	</g>
</g>
</svg>
