<?xml version="1.0" encoding="utf-8"?>
<!-- Generator: Adobe Illustrator 25.2.0, SVG Export Plug-In . SVG Version: 6.00 Build 0)  -->
<svg version="1.1" id="Layer_1" xmlns="http://www.w3.org/2000/svg" xmlns:xlink="http://www.w3.org/1999/xlink" x="0px" y="0px"
	 viewBox="0 0 934 934" style="enable-background:new 0 0 934 934;" xml:space="preserve">
<style type="text/css">
	.st0{fill:#2A6DF5;stroke:#2A6DF5;stroke-width:5;stroke-miterlimit:10;}
</style>
<g id="surface1">
	<path class="st0" d="M599.3,685.9c-38.7,0-70,31.4-70,70.1c0,38.7,31.4,70,70,70c38.7,0,70.1-31.4,70.1-70
		C669.3,717.3,638,686,599.3,685.9z M599.3,794.9c-21.5,0-38.9-17.4-38.9-38.9s17.4-38.9,38.9-38.9s38.9,17.4,38.9,38.9
		S620.8,794.9,599.3,794.9z"/>
	<path class="st0" d="M755,794.9c-38.7,0-70.1,31.4-70.1,70.1c0,38.7,31.4,70.1,70.1,70.1c38.7,0,70.1-31.4,70.1-70.1
		C825,826.3,793.7,794.9,755,794.9z M755,903.9c-21.5,0-38.9-17.4-38.9-38.9s17.4-38.9,38.9-38.9s38.9,17.4,38.9,38.9
		C793.9,886.4,776.5,903.9,755,903.9z"/>
	<path class="st0" d="M13,312.1c25.4,4.2,45.2,24.1,49.5,49.5c1.3,7.5,7.8,13,15.4,13s14.1-5.5,15.4-13
		c4.2-25.4,24.1-45.3,49.5-49.5c7.5-1.3,13-7.8,13-15.4s-5.5-14.1-13-15.3c-25.4-4.2-45.2-24.1-49.5-49.5c-1.3-7.5-7.8-13-15.4-13
		s-14.1,5.5-15.4,13c-4.2,25.4-24.1,45.2-49.5,49.5c-7.5,1.3-13,7.7-13,15.3C0.1,304.4,5.5,310.8,13,312.1z M77.8,274.5
		c6.1,8.6,13.6,16.2,22.2,22.2c-8.6,6.1-16.2,13.6-22.2,22.2c-6.1-8.6-13.6-16.2-22.2-22.2C64.2,290.7,71.8,283.2,77.8,274.5z"/>
	<path class="st0" d="M925.2,189.3L536,2.5c-4.3-2.1-9.2-2.1-13.5,0L133.3,190.3c-5.2,2.5-8.6,7.8-8.8,13.6
		c-0.2,5.8,2.9,11.2,8,14.1l389.2,217c4.7,2.6,10.5,2.6,15.2,0l194.8-109.1v204.9c-58.5,3.5-114.3,26.3-158.4,64.9l-44,38.5
		l-7.5-6.6l-20.5,23.3l17.8,15.6c5.9,5.1,14.6,5.1,20.5,0l54.3-47.4c42.5-37.2,97-57.6,153.4-57.6c8.6,0,15.6-7,15.6-15.6V308.4
		l77.8-43.6v125.4c-7.3,0-13.6,5.1-15.2,12.2l-31.1,140.1c-1,4.6,0.1,9.4,3.1,13.1c3,3.7,7.4,5.8,12.1,5.8H903
		c4.7,0,9.2-2.1,12.2-5.8s4.1-8.5,3.1-13.1l-31.1-140.1c-1.6-7.1-7.9-12.2-15.2-12.2V247.3l54.3-30.4c5.1-2.8,8.1-8.3,8-14.1
		S930.4,191.8,925.2,189.3L925.2,189.3z M883.5,530.3h-54.6l24.2-109h6.2L883.5,530.3z M858.3,219.2c-0.2,0-0.3-0.1-0.6-0.2
		l-284.3-29.9c-7-21.5-28.5-34.9-50.9-31.6c-22.4,3.3-39.2,22.2-39.8,44.8c-0.6,22.6,15.2,42.4,37.4,46.9
		c22.2,4.4,44.4-7.7,52.6-28.9l238.8,25.1l-282.2,158L173.9,205.3L529.3,33.8l355.4,170.6L858.3,219.2z M544.8,203.4
		c0,8.6-7,15.6-15.6,15.6s-15.6-7-15.6-15.6s7-15.6,15.6-15.6C537.9,187.8,544.8,194.8,544.8,203.4z"/>
	<path class="st0" d="M770.5,623.7c-38.7,0-70,31.4-70,70.1s31.4,70.1,70,70.1c38.7,0,70.1-31.4,70.1-70.1
		C840.6,655,809.2,623.7,770.5,623.7z M770.5,732.6c-21.5,0-38.9-17.4-38.9-38.9s17.4-38.9,38.9-38.9s38.9,17.4,38.9,38.9
		C809.5,715.2,792,732.6,770.5,732.6z"/>
	<path class="st0" d="M482.6,819.6V685.9c-0.1-89.2-54.6-169.4-137.5-202.4l42.3-81.4c3.7-7.1,1.3-15.9-5.4-20.2l-15.6-10
		c-24-15.2-54.1-17-79.7-4.8c-14,6.6-30.2,6.6-44.2,0c-25.6-12.2-55.7-10.4-79.7,4.8l-15.6,10c-6.7,4.3-9.1,13.1-5.4,20.2l42.3,81.4
		c-82.9,33-137.4,113.1-137.5,202.4v133.7L14.2,852c-13.9,13.9-18,34.8-10.5,53s25.2,30,44.9,30h432.1c19.6,0,37.4-11.8,44.9-30
		c7.5-18.1,3.4-39-10.5-53L482.6,819.6z M176,400.4l3.6-2.3c14.9-9.4,33.5-10.5,49.4-2.9c22.5,10.7,48.6,10.7,71.1,0
		c15.9-7.6,34.5-6.5,49.4,2.9l3.6,2.3l-38.3,73.7c-33-8.1-67.5-8.1-100.6,0L176,400.4z M480.7,903.9H48.6c-7.1,0-13.4-4.2-16.1-10.8
		c-2.7-6.5-1.2-14,3.8-19l37-37c2.9-2.9,4.6-6.9,4.6-11V685.9c0-103.2,83.6-186.8,186.8-186.8s186.8,83.6,186.8,186.8V826
		c0,4.1,1.6,8.1,4.6,11l37,37c5,5,6.5,12.5,3.8,19C494.1,899.6,487.7,903.9,480.7,903.9z"/>
	<path class="st0" d="M280.2,685.9h-31.1c-8.6,0-15.6-7-15.6-15.6s7-15.6,15.6-15.6h62.3v-31.1h-31.1v-31.1h-31.1v31.1
		c-25.8,0-46.7,20.9-46.7,46.7s20.9,46.7,46.7,46.7h31.1c8.6,0,15.6,7,15.6,15.6s-7,15.6-15.6,15.6H218v31.1h31.1v31.1h31.1v-31.1
		c25.8,0,46.7-20.9,46.7-46.7C326.9,706.8,306,685.9,280.2,685.9z"/>
</g>
</svg>
